<svg width="72" height="58" viewBox="0 0 72 58" fill="none" xmlns="http://www.w3.org/2000/svg">
<path fill-rule="evenodd" clip-rule="evenodd" d="M61.2001 20C61.2001 17.0177 63.6177 14.6 66.6001 14.6C68.5293 14.6 70.312 15.6292 71.2766 17.3C72.2412 18.9708 72.2412 21.0292 71.2766 22.7C70.312 24.3708 68.5293 25.4 66.6001 25.4C66.3095 25.3929 66.0199 25.3628 65.7341 25.31L57.6001 47H14.4001L6.26606 25.31C5.98022 25.3628 5.69065 25.3929 5.40006 25.4C3.00564 25.4029 0.895266 23.8286 0.21567 21.5327C-0.463926 19.2367 0.449568 16.7674 2.45978 15.4665C4.46999 14.1656 7.09681 14.3438 8.91289 15.9043C10.729 17.4648 11.3006 20.0349 10.3171 22.218L18.4511 27.1C19.2806 27.5963 20.2748 27.7381 21.2099 27.4936C22.1451 27.2491 22.9426 26.6388 23.4231 25.8L32.5921 9.76301C30.8198 8.3207 30.1471 5.91899 30.9125 3.76595C31.6779 1.61292 33.7155 0.174683 36.0006 0.174683C38.2856 0.174683 40.3233 1.61292 41.0886 3.76595C41.854 5.91899 41.1814 8.3207 39.4091 9.76301L48.5781 25.805C49.0577 26.6446 49.8548 27.256 50.7901 27.5014C51.7253 27.7469 52.72 27.6058 53.5501 27.11L61.7001 22.227C61.3733 21.5299 61.2027 20.7699 61.2001 20ZM12.6001 50.6H59.4001C60.393 50.6028 61.1973 51.407 61.2001 52.4V56C61.1973 56.993 60.393 57.7973 59.4001 57.8H12.6001C11.6071 57.7973 10.8028 56.993 10.8001 56V52.4C10.8028 51.407 11.6071 50.6028 12.6001 50.6Z" fill="#FAFAFA"/>
</svg>
